<svg xmlns="http://www.w3.org/2000/svg" xmlns:xlink="http://www.w3.org/1999/xlink" width="500" zoomAndPan="magnify" viewBox="0 0 375 374.999991" height="500" preserveAspectRatio="xMidYMid meet" version="1.0"><defs><clipPath id="2848c12ede"><path d="M 28.199219 125.402344 L 96 125.402344 L 96 201 L 28.199219 201 Z M 28.199219 125.402344 " clip-rule="nonzero"/></clipPath><clipPath id="b3d2865484"><path d="M 326 142 L 346.949219 142 L 346.949219 184 L 326 184 Z M 326 142 " clip-rule="nonzero"/></clipPath><clipPath id="589e388709"><path d="M 115 199 L 125 199 L 125 210.902344 L 115 210.902344 Z M 115 199 " clip-rule="nonzero"/></clipPath><clipPath id="484930ea11"><path d="M 128 199 L 137 199 L 137 210.902344 L 128 210.902344 Z M 128 199 " clip-rule="nonzero"/></clipPath><clipPath id="21610893f3"><path d="M 139 199 L 149 199 L 149 210.902344 L 139 210.902344 Z M 139 199 " clip-rule="nonzero"/></clipPath><clipPath id="5b9a48d208"><path d="M 150 199 L 160 199 L 160 210.902344 L 150 210.902344 Z M 150 199 " clip-rule="nonzero"/></clipPath><clipPath id="5d053bc1b5"><path d="M 160 199 L 172 199 L 172 210.902344 L 160 210.902344 Z M 160 199 " clip-rule="nonzero"/></clipPath><clipPath id="89de76e987"><path d="M 175 199 L 185 199 L 185 210.902344 L 175 210.902344 Z M 175 199 " clip-rule="nonzero"/></clipPath><clipPath id="83d7267675"><path d="M 186 199 L 196 199 L 196 210.902344 L 186 210.902344 Z M 186 199 " clip-rule="nonzero"/></clipPath><clipPath id="379fbef28e"><path d="M 203 199 L 214 199 L 214 210.902344 L 203 210.902344 Z M 203 199 " clip-rule="nonzero"/></clipPath><clipPath id="49a03b6885"><path d="M 214 199 L 227 199 L 227 210.902344 L 214 210.902344 Z M 214 199 " clip-rule="nonzero"/></clipPath><clipPath id="d2cd655ef5"><path d="M 230 199 L 240 199 L 240 210.902344 L 230 210.902344 Z M 230 199 " clip-rule="nonzero"/></clipPath><clipPath id="d0dba5ec2e"><path d="M 244 199 L 254 199 L 254 210.902344 L 244 210.902344 Z M 244 199 " clip-rule="nonzero"/></clipPath><clipPath id="549454ff31"><path d="M 263 199 L 273 199 L 273 210.902344 L 263 210.902344 Z M 263 199 " clip-rule="nonzero"/></clipPath><clipPath id="7efebcd94b"><path d="M 275 199 L 288 199 L 288 210.902344 L 275 210.902344 Z M 275 199 " clip-rule="nonzero"/></clipPath><clipPath id="414ceb397f"><path d="M 291 199 L 302 199 L 302 210.902344 L 291 210.902344 Z M 291 199 " clip-rule="nonzero"/></clipPath><clipPath id="d23db85c22"><path d="M 303 199 L 314 199 L 314 210.902344 L 303 210.902344 Z M 303 199 " clip-rule="nonzero"/></clipPath></defs><g clip-path="url(#2848c12ede)"><path fill="#00244f" d="M 95.351562 185.050781 C 88.613281 194.324219 77.636719 200.214844 65.359375 200.214844 C 44.824219 200.210938 28.199219 183.527344 28.199219 162.90625 C 28.199219 142.289062 44.824219 125.5 65.359375 125.5 C 77.636719 125.5 88.613281 131.496094 95.351562 140.769531 L 82.527344 149.058594 C 77.746094 144.691406 72.421875 141.859375 65.359375 141.859375 C 53.839844 141.859375 44.496094 151.347656 44.496094 162.90625 C 44.496094 174.46875 53.839844 183.847656 65.359375 183.847656 C 72.421875 183.847656 76.875 181.558594 82.527344 176.757812 L 95.351562 185.046875 Z M 95.351562 185.050781 " fill-opacity="1" fill-rule="nonzero"/></g><path fill="#00a6e5" d="M 56.179688 162.855469 C 56.179688 157.753906 60.304688 153.613281 65.386719 153.613281 C 70.46875 153.613281 74.589844 157.753906 74.589844 162.855469 C 74.589844 167.953125 70.46875 172.09375 65.386719 172.09375 C 60.304688 172.09375 56.179688 167.953125 56.179688 162.855469 " fill-opacity="1" fill-rule="nonzero"/><path fill="#00244f" d="M 134.742188 168.082031 L 134.742188 173.582031 C 134.742188 180.203125 131.433594 183.992188 125.050781 183.992188 C 118.667969 183.992188 115.359375 180.210938 115.359375 173.582031 L 115.359375 152.054688 C 115.359375 145.433594 118.667969 141.644531 125.050781 141.644531 C 131.433594 141.644531 134.742188 145.429688 134.742188 152.054688 L 134.742188 156.078125 L 128.597656 156.078125 L 128.597656 151.640625 C 128.597656 148.6875 127.296875 147.5625 125.230469 147.5625 C 123.160156 147.5625 121.859375 148.6875 121.859375 151.640625 L 121.859375 173.996094 C 121.859375 176.953125 123.160156 178.015625 125.230469 178.015625 C 127.296875 178.015625 128.597656 176.953125 128.597656 173.996094 L 128.597656 168.082031 Z M 134.742188 168.082031 " fill-opacity="1" fill-rule="nonzero"/><path fill="#00244f" d="M 150.054688 148.035156 L 150.054688 160.753906 L 152.597656 160.753906 C 155.023438 160.753906 156.5 159.6875 156.5 156.378906 L 156.5 152.296875 C 156.5 149.339844 155.492188 148.039062 153.191406 148.039062 L 150.058594 148.039062 Z M 157.148438 183.519531 C 156.792969 182.457031 156.558594 181.804688 156.558594 178.4375 L 156.558594 171.933594 C 156.558594 168.089844 155.257812 166.671875 152.300781 166.671875 L 150.058594 166.671875 L 150.058594 183.527344 L 143.558594 183.527344 L 143.558594 142.117188 L 153.367188 142.117188 C 160.105469 142.117188 163 145.25 163 151.640625 L 163 154.894531 C 163 159.152344 161.640625 161.933594 158.742188 163.292969 C 161.992188 164.65625 163.058594 167.789062 163.058594 172.109375 L 163.058594 178.496094 C 163.058594 180.503906 163.117188 181.984375 163.765625 183.519531 Z M 157.148438 183.519531 " fill-opacity="1" fill-rule="nonzero"/><path fill="#00244f" d="M 177.65625 169.796875 L 169.4375 142.117188 L 176.238281 142.117188 L 181.199219 160.984375 L 186.164062 142.117188 L 192.375 142.117188 L 184.15625 169.796875 L 184.15625 183.519531 L 177.65625 183.519531 Z M 177.65625 169.796875 " fill-opacity="1" fill-rule="nonzero"/><path fill="#00244f" d="M 204.90625 173.996094 C 204.90625 176.953125 206.207031 178.074219 208.273438 178.074219 C 210.339844 178.074219 211.640625 176.953125 211.640625 173.996094 L 211.640625 151.640625 C 211.640625 148.6875 210.339844 147.5625 208.273438 147.5625 C 206.207031 147.5625 204.90625 148.6875 204.90625 151.640625 Z M 198.40625 152.054688 C 198.40625 145.433594 201.890625 141.644531 208.273438 141.644531 C 214.65625 141.644531 218.148438 145.429688 218.148438 152.054688 L 218.148438 173.582031 C 218.148438 180.203125 214.660156 183.992188 208.273438 183.992188 C 201.886719 183.992188 198.40625 180.210938 198.40625 173.582031 Z M 198.40625 152.054688 " fill-opacity="1" fill-rule="nonzero"/><path fill="#00244f" d="M 233.691406 148.035156 L 233.691406 162.054688 L 236.765625 162.054688 C 238.832031 162.054688 239.957031 161.105469 239.957031 158.152344 L 239.957031 151.9375 C 239.957031 148.980469 238.832031 148.035156 236.765625 148.035156 Z M 246.457031 152.351562 L 246.457031 157.730469 C 246.457031 164.355469 243.265625 167.964844 236.765625 167.964844 L 233.691406 167.964844 L 233.691406 183.519531 L 227.191406 183.519531 L 227.191406 142.117188 L 236.765625 142.117188 C 243.265625 142.117188 246.457031 145.722656 246.457031 152.351562 " fill-opacity="1" fill-rule="nonzero"/><path fill="#00244f" d="M 260.289062 173.996094 C 260.289062 176.953125 261.589844 178.074219 263.65625 178.074219 C 265.722656 178.074219 267.023438 176.953125 267.023438 173.996094 L 267.023438 151.640625 C 267.023438 148.6875 265.722656 147.5625 263.65625 147.5625 C 261.589844 147.5625 260.289062 148.6875 260.289062 151.640625 Z M 253.789062 152.054688 C 253.789062 145.433594 257.273438 141.644531 263.65625 141.644531 C 270.039062 141.644531 273.523438 145.429688 273.523438 152.054688 L 273.523438 173.582031 C 273.523438 180.203125 270.039062 183.992188 263.65625 183.992188 C 257.273438 183.992188 253.789062 180.210938 253.789062 173.582031 Z M 253.789062 152.054688 " fill-opacity="1" fill-rule="nonzero"/><path fill="#00244f" d="M 282.574219 142.117188 L 289.074219 142.117188 L 289.074219 183.515625 L 282.574219 183.515625 Z M 282.574219 142.117188 " fill-opacity="1" fill-rule="nonzero"/><path fill="#00244f" d="M 304.449219 153.535156 L 304.449219 183.519531 L 298.59375 183.519531 L 298.59375 142.117188 L 306.75 142.117188 L 313.429688 166.902344 L 313.429688 142.117188 L 319.222656 142.117188 L 319.222656 183.519531 L 312.542969 183.519531 Z M 304.449219 153.535156 " fill-opacity="1" fill-rule="nonzero"/><g clip-path="url(#b3d2865484)"><path fill="#00244f" d="M 326.847656 142.117188 L 346.949219 142.117188 L 346.949219 148.035156 L 340.148438 148.035156 L 340.148438 183.519531 L 333.648438 183.519531 L 333.648438 148.035156 L 326.847656 148.035156 Z M 326.847656 142.117188 " fill-opacity="1" fill-rule="nonzero"/></g><g clip-path="url(#589e388709)"><path fill="#00a6e5" d="M 119.75 205.773438 C 120.714844 205.773438 121.453125 205.5625 121.96875 205.136719 C 122.480469 204.714844 122.738281 204.085938 122.738281 203.261719 C 122.738281 202.441406 122.480469 201.847656 121.96875 201.433594 C 121.453125 201.019531 120.714844 200.816406 119.75 200.816406 L 116.890625 200.816406 L 116.890625 205.777344 L 119.75 205.777344 Z M 122.609375 210.683594 L 120.378906 207.144531 C 120.121094 207.164062 119.910156 207.175781 119.75 207.175781 L 116.890625 207.175781 L 116.890625 210.683594 L 115.351562 210.683594 L 115.351562 199.410156 L 119.746094 199.410156 C 121.171875 199.410156 122.269531 199.738281 123.042969 200.398438 C 123.820312 201.058594 124.207031 201.992188 124.207031 203.207031 C 124.207031 204.121094 123.992188 204.890625 123.574219 205.515625 C 123.15625 206.136719 122.546875 206.589844 121.753906 206.867188 L 124.371094 210.683594 L 122.605469 210.683594 Z M 122.609375 210.683594 " fill-opacity="1" fill-rule="nonzero"/></g><g clip-path="url(#484930ea11)"><path fill="#00a6e5" d="M 128.566406 199.410156 L 136.359375 199.410156 L 136.359375 200.8125 L 130.101562 200.8125 L 130.101562 204.292969 L 135.707031 204.292969 L 135.707031 205.699219 L 130.101562 205.699219 L 130.101562 209.289062 L 136.554688 209.289062 L 136.554688 210.691406 L 128.566406 210.691406 Z M 128.566406 199.410156 " fill-opacity="1" fill-rule="nonzero"/></g><g clip-path="url(#21610893f3)"><path fill="#00a6e5" d="M 145.582031 201.015625 C 145.019531 200.847656 144.503906 200.769531 144.035156 200.769531 C 143.382812 200.769531 142.863281 200.898438 142.472656 201.144531 C 142.078125 201.398438 141.886719 201.746094 141.886719 202.1875 C 141.886719 202.585938 142.003906 202.90625 142.242188 203.160156 C 142.476562 203.414062 142.765625 203.613281 143.109375 203.757812 C 143.449219 203.902344 143.925781 204.074219 144.539062 204.261719 C 145.296875 204.5 145.914062 204.722656 146.386719 204.941406 C 146.855469 205.15625 147.257812 205.472656 147.589844 205.894531 C 147.921875 206.320312 148.085938 206.878906 148.085938 207.578125 C 148.085938 208.222656 147.917969 208.789062 147.570312 209.273438 C 147.21875 209.753906 146.734375 210.132812 146.105469 210.390625 C 145.480469 210.652344 144.761719 210.789062 143.949219 210.789062 C 143.136719 210.789062 142.320312 210.625 141.539062 210.304688 C 140.757812 209.980469 140.082031 209.550781 139.515625 209.015625 L 140.207031 207.675781 C 140.742188 208.203125 141.339844 208.609375 142.011719 208.890625 C 142.679688 209.175781 143.328125 209.320312 143.960938 209.320312 C 144.710938 209.320312 145.296875 209.175781 145.730469 208.878906 C 146.164062 208.582031 146.378906 208.1875 146.378906 207.679688 C 146.378906 207.28125 146.261719 206.960938 146.027344 206.703125 C 145.789062 206.445312 145.492188 206.242188 145.136719 206.089844 C 144.777344 205.9375 144.296875 205.773438 143.6875 205.589844 C 142.9375 205.363281 142.328125 205.144531 141.855469 204.929688 C 141.382812 204.714844 140.988281 204.398438 140.660156 203.976562 C 140.335938 203.558594 140.171875 203.003906 140.171875 202.316406 C 140.171875 201.714844 140.339844 201.183594 140.671875 200.71875 C 141.003906 200.257812 141.46875 199.902344 142.070312 199.65625 C 142.667969 199.410156 143.363281 199.285156 144.15625 199.285156 C 144.832031 199.285156 145.492188 199.386719 146.140625 199.585938 C 146.785156 199.785156 147.359375 200.046875 147.863281 200.382812 L 147.21875 201.761719 C 146.695312 201.429688 146.15625 201.183594 145.59375 201.015625 " fill-opacity="1" fill-rule="nonzero"/></g><g clip-path="url(#5b9a48d208)"><path fill="#00a6e5" d="M 150.695312 199.410156 L 159.476562 199.410156 L 159.476562 200.828125 L 155.847656 200.828125 L 155.847656 210.691406 L 154.304688 210.691406 L 154.304688 200.828125 L 150.695312 200.828125 Z M 150.695312 199.410156 " fill-opacity="1" fill-rule="nonzero"/></g><g clip-path="url(#5d053bc1b5)"><path fill="#00a6e5" d="M 163.617188 206.550781 L 168.332031 206.550781 L 165.957031 201.074219 L 163.609375 206.550781 Z M 170.117188 210.691406 L 168.929688 207.949219 L 163.003906 207.949219 L 161.832031 210.691406 L 160.210938 210.691406 L 165.203125 199.414062 L 166.808594 199.414062 L 171.78125 210.691406 L 170.113281 210.691406 Z M 170.117188 210.691406 " fill-opacity="1" fill-rule="nonzero"/></g><g clip-path="url(#89de76e987)"><path fill="#00a6e5" d="M 179.421875 205.773438 C 180.386719 205.773438 181.121094 205.5625 181.640625 205.136719 C 182.152344 204.714844 182.410156 204.085938 182.410156 203.261719 C 182.410156 202.441406 182.152344 201.847656 181.640625 201.433594 C 181.125 201.019531 180.386719 200.816406 179.421875 200.816406 L 176.5625 200.816406 L 176.5625 205.777344 L 179.421875 205.777344 Z M 182.277344 210.683594 L 180.042969 207.144531 C 179.789062 207.164062 179.578125 207.175781 179.417969 207.175781 L 176.558594 207.175781 L 176.558594 210.683594 L 175.015625 210.683594 L 175.015625 199.410156 L 179.417969 199.410156 C 180.84375 199.410156 181.941406 199.738281 182.714844 200.398438 C 183.492188 201.058594 183.878906 201.992188 183.878906 203.207031 C 183.878906 204.121094 183.664062 204.890625 183.246094 205.515625 C 182.824219 206.136719 182.21875 206.589844 181.425781 206.867188 L 184.042969 210.683594 Z M 182.277344 210.683594 " fill-opacity="1" fill-rule="nonzero"/></g><g clip-path="url(#83d7267675)"><path fill="#00a6e5" d="M 186.792969 199.410156 L 195.574219 199.410156 L 195.574219 200.828125 L 191.941406 200.828125 L 191.941406 210.691406 L 190.40625 210.691406 L 190.40625 200.828125 L 186.792969 200.828125 Z M 186.792969 199.410156 " fill-opacity="1" fill-rule="nonzero"/></g><g clip-path="url(#379fbef28e)"><path fill="#00a6e5" d="M 213.210938 199.410156 L 209.003906 206.820312 L 209.003906 210.691406 L 207.464844 210.691406 L 207.464844 206.886719 L 203.191406 199.410156 L 204.765625 199.410156 L 208.234375 205.164062 L 211.636719 199.410156 Z M 213.210938 199.410156 " fill-opacity="1" fill-rule="nonzero"/></g><g clip-path="url(#49a03b6885)"><path fill="#00a6e5" d="M 218.640625 201.277344 C 217.972656 201.667969 217.441406 202.191406 217.042969 202.847656 C 216.648438 203.511719 216.449219 204.234375 216.449219 205.03125 C 216.449219 205.828125 216.648438 206.558594 217.042969 207.222656 C 217.441406 207.890625 217.972656 208.417969 218.640625 208.808594 C 219.308594 209.203125 220.03125 209.394531 220.8125 209.394531 C 221.597656 209.394531 222.3125 209.203125 222.972656 208.808594 C 223.632812 208.417969 224.15625 207.890625 224.546875 207.222656 C 224.9375 206.558594 225.128906 205.828125 225.128906 205.03125 C 225.128906 204.234375 224.9375 203.511719 224.546875 202.847656 C 224.15625 202.191406 223.632812 201.667969 222.972656 201.277344 C 222.3125 200.890625 221.597656 200.699219 220.8125 200.699219 C 220.03125 200.699219 219.308594 200.890625 218.640625 201.277344 M 223.777344 200.070312 C 224.679688 200.574219 225.390625 201.261719 225.917969 202.140625 C 226.441406 203.015625 226.703125 203.976562 226.703125 205.03125 C 226.703125 206.085938 226.441406 207.050781 225.917969 207.9375 C 225.390625 208.824219 224.679688 209.523438 223.777344 210.035156 C 222.871094 210.546875 221.878906 210.796875 220.796875 210.796875 C 219.714844 210.796875 218.726562 210.546875 217.820312 210.035156 C 216.917969 209.523438 216.203125 208.824219 215.679688 207.9375 C 215.15625 207.050781 214.890625 206.085938 214.890625 205.03125 C 214.890625 203.976562 215.15625 203.015625 215.679688 202.140625 C 216.203125 201.261719 216.917969 200.574219 217.816406 200.070312 C 218.714844 199.566406 219.710938 199.3125 220.796875 199.3125 C 221.886719 199.3125 222.871094 199.566406 223.777344 200.070312 " fill-opacity="1" fill-rule="nonzero"/></g><g clip-path="url(#d2cd655ef5)"><path fill="#00a6e5" d="M 232.683594 208.523438 C 233.257812 209.109375 234.046875 209.402344 235.050781 209.402344 C 236.058594 209.402344 236.828125 209.109375 237.398438 208.523438 C 237.964844 207.9375 238.25 207.128906 238.25 206.085938 L 238.25 199.414062 L 239.792969 199.414062 L 239.792969 206.085938 C 239.792969 207.558594 239.375 208.707031 238.53125 209.546875 C 237.691406 210.382812 236.535156 210.804688 235.058594 210.804688 C 233.578125 210.804688 232.402344 210.382812 231.5625 209.546875 C 230.714844 208.707031 230.292969 207.550781 230.292969 206.085938 L 230.292969 199.414062 L 231.835938 199.414062 L 231.835938 206.085938 C 231.835938 207.128906 232.117188 207.9375 232.691406 208.523438 " fill-opacity="1" fill-rule="nonzero"/></g><g clip-path="url(#d0dba5ec2e)"><path fill="#00a6e5" d="M 248.761719 205.773438 C 249.722656 205.773438 250.460938 205.5625 250.976562 205.136719 C 251.492188 204.714844 251.746094 204.085938 251.746094 203.261719 C 251.746094 202.441406 251.492188 201.847656 250.976562 201.433594 C 250.460938 201.019531 249.722656 200.816406 248.761719 200.816406 L 245.90625 200.816406 L 245.90625 205.777344 L 248.761719 205.777344 Z M 251.621094 210.683594 L 249.386719 207.144531 C 249.128906 207.164062 248.921875 207.175781 248.761719 207.175781 L 245.90625 207.175781 L 245.90625 210.683594 L 244.363281 210.683594 L 244.363281 199.410156 L 248.761719 199.410156 C 250.183594 199.410156 251.28125 199.738281 252.058594 200.398438 C 252.835938 201.058594 253.21875 201.992188 253.21875 203.207031 C 253.21875 204.121094 253.007812 204.890625 252.589844 205.515625 C 252.164062 206.136719 251.5625 206.589844 250.769531 206.867188 L 253.386719 210.683594 Z M 251.621094 210.683594 " fill-opacity="1" fill-rule="nonzero"/></g><g clip-path="url(#549454ff31)"><path fill="#00a6e5" d="M 270.0625 208.796875 C 270.53125 208.472656 270.769531 208.015625 270.769531 207.421875 C 270.769531 206.832031 270.53125 206.40625 270.0625 206.085938 C 269.589844 205.761719 268.9375 205.601562 268.101562 205.601562 L 264.921875 205.601562 L 264.921875 209.273438 L 268.101562 209.273438 C 268.9375 209.28125 269.589844 209.125 270.0625 208.796875 M 269.710938 203.757812 C 270.09375 203.460938 270.28125 203.042969 270.28125 202.492188 C 270.28125 201.945312 270.09375 201.542969 269.710938 201.253906 C 269.332031 200.960938 268.796875 200.824219 268.101562 200.832031 L 264.921875 200.832031 L 264.921875 204.203125 L 268.101562 204.203125 C 268.796875 204.203125 269.332031 204.058594 269.710938 203.757812 M 270.886719 200.160156 C 271.542969 200.660156 271.871094 201.355469 271.871094 202.230469 C 271.871094 202.875 271.6875 203.417969 271.324219 203.871094 C 270.960938 204.316406 270.460938 204.613281 269.832031 204.761719 C 270.613281 204.878906 271.222656 205.191406 271.667969 205.703125 C 272.113281 206.214844 272.332031 206.847656 272.332031 207.609375 C 272.332031 208.578125 271.972656 209.332031 271.25 209.875 C 270.527344 210.417969 269.53125 210.683594 268.257812 210.683594 L 263.378906 210.683594 L 263.378906 199.410156 L 268.175781 199.410156 C 269.320312 199.410156 270.222656 199.660156 270.878906 200.15625 " fill-opacity="1" fill-rule="nonzero"/></g><g clip-path="url(#7efebcd94b)"><path fill="#00a6e5" d="M 279.167969 201.277344 C 278.5 201.667969 277.96875 202.191406 277.574219 202.847656 C 277.175781 203.511719 276.980469 204.234375 276.980469 205.03125 C 276.980469 205.828125 277.175781 206.558594 277.574219 207.222656 C 277.96875 207.890625 278.5 208.417969 279.167969 208.808594 C 279.839844 209.203125 280.5625 209.394531 281.34375 209.394531 C 282.125 209.394531 282.84375 209.203125 283.5 208.808594 C 284.160156 208.417969 284.683594 207.890625 285.074219 207.222656 C 285.464844 206.558594 285.660156 205.828125 285.660156 205.03125 C 285.660156 204.234375 285.464844 203.511719 285.074219 202.847656 C 284.683594 202.191406 284.160156 201.667969 283.5 201.277344 C 282.84375 200.890625 282.125 200.699219 281.34375 200.699219 C 280.5625 200.699219 279.839844 200.890625 279.167969 201.277344 M 284.304688 200.070312 C 285.210938 200.574219 285.921875 201.261719 286.445312 202.140625 C 286.96875 203.015625 287.234375 203.976562 287.234375 205.03125 C 287.234375 206.085938 286.96875 207.050781 286.445312 207.9375 C 285.921875 208.824219 285.210938 209.523438 284.304688 210.035156 C 283.398438 210.546875 282.410156 210.796875 281.328125 210.796875 C 280.246094 210.796875 279.253906 210.546875 278.351562 210.035156 C 277.445312 209.523438 276.734375 208.824219 276.207031 207.9375 C 275.683594 207.050781 275.421875 206.085938 275.421875 205.03125 C 275.421875 203.976562 275.683594 203.015625 276.207031 202.140625 C 276.734375 201.261719 277.445312 200.574219 278.34375 200.070312 C 279.242188 199.566406 280.238281 199.3125 281.328125 199.3125 C 282.414062 199.3125 283.398438 199.566406 284.304688 200.070312 " fill-opacity="1" fill-rule="nonzero"/></g><g clip-path="url(#414ceb397f)"><path fill="#00a6e5" d="M 297.785156 208.738281 C 298.425781 208.375 298.925781 207.867188 299.296875 207.222656 C 299.667969 206.578125 299.847656 205.859375 299.847656 205.0625 C 299.847656 204.269531 299.660156 203.53125 299.285156 202.886719 C 298.910156 202.242188 298.402344 201.734375 297.753906 201.363281 C 297.105469 200.996094 296.390625 200.8125 295.597656 200.8125 L 292.59375 200.8125 L 292.59375 209.289062 L 295.660156 209.289062 C 296.441406 209.289062 297.148438 209.105469 297.785156 208.738281 M 298.589844 200.144531 C 299.472656 200.632812 300.164062 201.304688 300.667969 202.167969 C 301.171875 203.027344 301.421875 203.988281 301.421875 205.050781 C 301.421875 206.117188 301.171875 207.078125 300.664062 207.9375 C 300.152344 208.796875 299.457031 209.46875 298.570312 209.960938 C 297.679688 210.449219 296.683594 210.691406 295.582031 210.691406 L 291.054688 210.691406 L 291.054688 199.414062 L 295.628906 199.414062 C 296.722656 199.414062 297.707031 199.660156 298.589844 200.144531 " fill-opacity="1" fill-rule="nonzero"/></g><g clip-path="url(#d23db85c22)"><path fill="#00a6e5" d="M 313.621094 199.410156 L 309.410156 206.820312 L 309.410156 210.691406 L 307.875 210.691406 L 307.875 206.886719 L 303.601562 199.410156 L 305.175781 199.410156 L 308.640625 205.164062 L 312.046875 199.410156 Z M 313.621094 199.410156 " fill-opacity="1" fill-rule="nonzero"/></g></svg>